<svg version="1.1" id="Layer_1" xmlns="http://www.w3.org/2000/svg" xmlns:xlink="http://www.w3.org/1999/xlink" x="0px" y="0px"
	 width="100%" viewBox="0 0 608 608" enable-background="new 0 0 608 608" xml:space="preserve">
<path fill="#000000" opacity="1.000000" stroke="none" 
	d="
M311.999939,442.323730 
	C286.501801,442.320068 261.503693,442.325378 236.505600,442.306213 
	C230.036728,442.301270 229.693130,441.964050 229.688843,435.524902 
	C229.672668,411.193420 229.675735,386.861938 229.692474,362.530457 
	C229.696762,356.303284 230.270309,355.767578 236.630234,355.720306 
	C239.129837,355.701721 241.636444,355.842285 244.127869,355.700043 
	C247.511581,355.506836 248.466446,357.193207 248.327576,360.273346 
	C248.181290,363.518646 246.249527,363.382019 243.856888,363.217010 
	C236.334290,362.698151 236.318192,362.761414 236.323456,370.291046 
	C236.325897,373.790466 236.287827,377.294098 236.441498,380.788177 
	C236.631149,385.100494 237.001282,389.404938 237.322083,394.135101 
	C238.533905,391.773132 237.326157,389.169922 239.178940,387.140442 
	C246.045044,393.492676 249.698410,400.024872 246.115082,409.898834 
	C243.953262,415.855743 243.058624,422.909760 247.396103,429.078583 
	C248.088867,430.063843 248.009598,431.627411 248.176163,432.937714 
	C248.360809,434.390381 248.745621,435.654144 250.523651,435.494873 
	C252.210007,435.343811 252.598083,434.044342 252.637177,432.608917 
	C252.677979,431.109955 252.682297,429.609650 252.682358,428.109955 
	C252.684021,391.612732 252.678589,355.115509 252.685577,318.618286 
	C252.687241,309.926544 260.169037,302.158325 268.959198,302.105011 
	C288.790283,301.984650 308.622681,302.098907 328.454163,302.018097 
	C332.197662,302.002869 335.393066,302.911591 337.694183,305.960571 
	C340.692108,309.932892 344.614227,311.330414 349.484650,310.750671 
	C351.620636,310.496368 353.814728,310.775513 355.978424,310.698822 
	C359.800873,310.563354 361.335663,312.375824 361.321442,316.156372 
	C361.246185,336.154480 361.282806,356.152985 361.263519,376.151367 
	C361.262421,377.297882 361.335907,378.505219 360.242554,379.564850 
	C356.008636,379.888885 354.604523,377.692413 354.638855,373.568390 
	C354.754059,359.737091 354.518646,345.901306 354.769470,332.073608 
	C354.850830,327.588684 353.625397,325.933472 348.928986,325.962921 
	C320.765625,326.139618 292.600403,326.112610 264.436493,325.989868 
	C260.507263,325.972748 259.233551,327.285858 259.246582,331.193207 
	C259.357239,364.356995 259.385529,397.521698 259.210571,430.684937 
	C259.186493,435.251709 261.200714,435.793854 264.945587,435.780518 
	C292.609833,435.681824 320.275452,435.612854 347.938293,435.832855 
	C353.066711,435.873657 355.526703,434.573364 354.749939,429.158173 
	C354.618683,428.243195 355.037323,427.249359 355.224915,426.158325 
	C359.047424,425.992615 361.595154,426.823334 361.337555,431.281860 
	C361.240692,432.957947 360.693359,435.421021 363.464539,435.505127 
	C366.254333,435.589813 365.914337,433.152130 365.759491,431.447723 
	C365.424133,427.756989 367.026306,425.259796 369.582825,422.735352 
	C372.715637,419.641785 376.685944,417.173309 378.020142,412.474365 
	C379.381195,407.681061 378.621857,403.510040 374.819916,400.243042 
	C372.748047,398.462646 371.653320,396.637512 371.989716,393.802521 
	C372.503510,389.471558 371.675873,385.493317 367.944702,382.607361 
	C366.843323,381.755432 366.209473,380.511780 366.172577,379.139130 
	C365.989227,372.311462 365.869751,365.482025 365.750824,358.652771 
	C365.719635,356.861389 366.603424,355.856598 368.447052,355.793213 
	C368.779968,355.781799 369.112518,355.743011 369.445160,355.744141 
	C386.734131,355.802399 384.219543,353.728027 384.305573,369.506134 
	C384.425476,391.503723 384.341827,413.502502 384.321777,435.500763 
	C384.315979,441.886200 383.911774,442.297760 377.492249,442.305206 
	C355.828186,442.330292 334.164032,442.320251 311.999939,442.323730 
M372.838196,377.754730 
	C372.903961,374.415863 373.336548,370.995514 370.758972,367.628174 
	C368.880280,370.828217 368.849792,373.808441 369.128815,376.735046 
	C369.317688,378.716583 370.147980,380.463470 372.838196,377.754730 
z"/>
<path fill="#000000" opacity="1.000000" stroke="none" 
	d="
M388.701904,416.999939 
	C388.699432,397.342621 388.719452,378.185272 388.681671,359.028015 
	C388.669464,352.843628 387.208527,351.434601 381.002869,351.343292 
	C377.671753,351.294250 374.338745,351.359039 371.008148,351.292999 
	C368.586212,351.244995 365.718201,351.848511 365.764130,347.859528 
	C365.807281,344.112518 368.554352,344.802887 370.755676,344.749786 
	C374.585022,344.657410 378.418488,344.673767 382.249359,344.718079 
	C390.755402,344.816406 395.255707,349.160919 395.275696,357.634613 
	C395.342834,386.120544 395.364868,414.606964 395.249023,443.092560 
	C395.231537,447.396820 396.090088,451.216248 398.118408,455.007355 
	C402.356506,462.928589 406.318787,470.997650 410.375244,479.015656 
	C414.333801,486.840210 410.530212,494.295593 401.826080,495.619019 
	C399.701843,495.942047 397.509979,495.890808 395.349152,495.891937 
	C335.878296,495.923248 276.407471,495.945679 216.936615,495.930634 
	C214.787292,495.930115 212.582458,495.771149 210.498947,495.280609 
	C203.484924,493.629150 200.130157,486.605011 203.269409,480.193634 
	C207.515305,471.522156 211.763733,462.848511 216.228348,454.289185 
	C217.981400,450.928284 218.750732,447.565002 218.739243,443.789612 
	C218.653519,415.636963 218.680450,387.483887 218.691345,359.330963 
	C218.695419,348.783295 222.646851,344.786102 233.086166,344.720734 
	C236.917267,344.696747 240.748932,344.759583 244.579971,344.732208 
	C246.985626,344.715027 248.341583,345.597198 248.257751,348.248260 
	C248.179169,350.732758 246.695541,351.301086 244.629684,351.302948 
	C240.465424,351.306702 236.301086,351.299866 232.136932,351.324066 
	C227.767273,351.349487 225.288605,353.208069 225.297073,357.934082 
	C225.347504,386.086945 225.389297,414.240143 225.263382,442.392487 
	C225.244263,446.666168 227.566086,446.743561 230.687576,446.740479 
	C271.167816,446.700256 311.648071,446.717865 352.128326,446.718079 
	C362.456482,446.718140 372.789368,446.524139 383.110596,446.788910 
	C387.575317,446.903473 388.927216,445.282410 388.781006,440.984467 
	C388.514954,433.164459 388.703247,425.328979 388.701904,416.999939 
M386.496399,480.713165 
	C391.743164,480.713165 396.989929,480.713165 402.195068,480.713165 
	C402.695190,477.980652 401.611115,476.615448 400.898468,475.173187 
	C398.094421,469.498505 395.022156,463.942780 392.502319,458.146027 
	C390.843781,454.330658 388.421204,453.224426 384.398743,453.234802 
	C336.247345,453.358887 288.088165,453.775909 239.948944,453.002899 
	C228.000244,452.811035 220.346313,455.251312 216.997513,467.297363 
	C215.750687,471.782410 212.330566,475.522766 210.889465,480.707245 
	C269.560608,480.707245 327.529022,480.707245 386.496399,480.713165 
M217.515350,487.835266 
	C215.565582,487.527588 213.613571,487.184418 211.746613,488.488922 
	C224.026764,488.488922 236.306900,488.488922 248.587036,488.488922 
	C248.588226,488.299927 248.589417,488.110931 248.590607,487.921936 
	C238.502548,487.921936 228.414474,487.921936 217.515350,487.835266 
M353.772797,488.141144 
	C353.644409,488.218414 353.516022,488.295654 353.387604,488.372894 
	C353.686920,488.481750 353.985992,488.684723 354.285614,488.685638 
	C360.419983,488.704102 366.554382,488.699463 372.688782,488.699463 
	C372.689331,488.494934 372.689850,488.290405 372.690399,488.085876 
	C366.565979,488.085876 360.441589,488.085876 353.772797,488.141144 
z"/>
<path fill="#000000" opacity="1.000000" stroke="none" 
	d="
M265.719391,155.836609 
	C268.684540,154.963318 270.076691,156.569427 271.225281,158.540771 
	C272.566010,160.841812 273.916962,163.141235 275.140991,165.504791 
	C276.529419,168.185699 277.978180,169.533859 281.640472,169.225845 
	C289.227722,168.587784 294.153046,176.654037 290.307495,183.438263 
	C288.301819,186.976593 288.921661,189.304932 290.711792,192.419861 
	C297.248413,203.793762 298.153137,203.759811 284.495209,207.492035 
	C276.636017,209.639679 268.845093,212.040100 261.044342,214.396027 
	C259.335876,214.911987 257.425293,215.091949 255.936203,216.819412 
	C258.812988,221.291336 263.172852,224.464310 266.559937,228.491638 
	C270.198181,232.817551 270.042694,234.251404 265.370422,236.964890 
	C256.119995,242.337219 252.103790,241.222580 246.825439,231.820786 
	C246.010590,230.369339 245.066986,228.976379 244.391174,227.463348 
	C242.434296,223.082138 240.113464,220.455231 234.319565,221.051147 
	C228.260696,221.674301 223.613617,217.926086 221.100525,212.202011 
	C218.608627,206.526306 219.214218,201.021698 223.127014,196.257019 
	C225.752975,193.059357 228.910141,190.283600 231.933701,187.429337 
	C243.067307,176.919083 254.244293,166.454788 265.719391,155.836609 
M272.728516,174.712494 
	C270.527527,171.505005 269.305115,167.634277 266.419464,164.875443 
	C259.506531,170.006790 259.586426,169.959595 263.534424,176.642822 
	C267.500732,183.357071 271.253082,190.197342 275.159760,196.947327 
	C278.522003,202.756683 279.964203,203.024506 286.749817,198.833847 
	C282.203766,191.025024 277.641510,183.188263 272.728516,174.712494 
z"/>
<path fill="#000000" opacity="1.000000" stroke="none" 
	d="
M345.818604,96.567169 
	C344.936188,103.485924 345.014526,109.850204 348.668793,115.710785 
	C350.020538,117.878616 351.238556,119.151649 354.494232,118.948021 
	C360.837494,118.551270 366.793915,121.377304 372.851440,123.064613 
	C374.924866,123.642151 375.155823,125.697273 374.635712,127.670280 
	C371.670654,138.918350 368.691223,150.162659 365.742126,161.414917 
	C364.970581,164.358871 362.737152,165.183243 360.357330,164.300415 
	C354.186523,162.011261 346.601562,163.256210 341.984558,156.939865 
	C341.025360,155.627640 339.157501,156.222382 337.704376,156.336151 
	C326.226685,157.234772 315.972321,152.373184 305.404053,149.247894 
	C301.110840,147.978302 300.043335,143.602203 300.271912,139.335770 
	C300.672058,131.867523 301.152222,124.402390 301.707306,116.944031 
	C302.145630,111.054703 305.666290,108.331314 311.485229,109.504730 
	C316.352631,110.486275 321.155884,111.785835 325.916901,112.927635 
	C327.741638,110.963257 327.469513,108.732468 327.695007,106.630592 
	C328.210297,101.826927 329.796112,97.546883 333.878296,94.592224 
	C338.028778,91.588104 341.979828,92.147804 345.818604,96.567169 
M348.061401,135.758102 
	C350.071716,130.903336 349.647797,126.924171 345.630981,122.779373 
	C340.899841,117.897491 338.979797,111.385025 338.632751,104.520218 
	C338.571716,103.312752 339.234192,101.807327 337.626678,101.010056 
	C333.336365,104.937752 332.752258,112.288086 336.481720,116.290337 
	C337.581970,117.471092 338.502655,118.601379 337.688599,120.223488 
	C336.828369,121.937607 335.272369,122.524048 333.481934,122.064987 
	C329.298920,120.992477 325.170959,119.698402 320.973297,118.691833 
	C317.026978,117.745537 313.251678,115.758934 308.669891,116.305504 
	C308.240387,120.069611 307.699463,123.663795 307.452301,127.278084 
	C307.168762,131.424576 307.124451,135.588318 307.016571,139.745605 
	C306.940826,142.661896 308.911102,143.785477 311.317719,144.436539 
	C317.731628,146.171692 324.100098,148.119080 330.582581,149.546249 
	C340.379486,151.703110 344.543579,149.004608 347.085419,139.435150 
	C347.341278,138.471848 347.585144,137.505356 348.061401,135.758102 
z"/>
<path fill="#000000" opacity="1.000000" stroke="none" 
	d="
M321.443146,280.541931 
	C316.425140,281.517059 315.085052,279.262360 316.365723,275.262421 
	C318.156128,269.670441 317.576569,264.706390 315.447388,259.050659 
	C307.615753,238.247421 319.381012,216.336716 340.834351,210.501480 
	C361.592468,204.855347 383.357605,218.350006 386.953278,239.768768 
	C389.210785,253.216217 385.605316,265.444122 374.960114,274.526855 
	C363.985474,283.890747 351.120819,286.373230 337.594391,281.314880 
	C332.120758,279.267975 327.223541,278.456055 321.443146,280.541931 
M360.709747,217.625641 
	C349.199768,214.269958 338.542145,215.573654 329.599152,224.062836 
	C320.995758,232.229675 317.695007,242.295898 320.518341,253.981186 
	C321.984741,260.050232 327.020294,265.219238 323.647278,273.670959 
	C330.578125,270.121002 334.871155,273.258911 339.581726,275.224487 
	C345.407318,277.655334 351.664001,277.641754 357.737762,276.130859 
	C370.028992,273.073273 379.745300,262.115021 380.691284,250.636124 
	C381.955078,235.300903 375.383575,224.145218 360.709747,217.625641 
z"/>
<path fill="#000000" opacity="1.000000" stroke="none" 
	d="
M343.680237,379.175293 
	C349.093933,381.002960 354.127686,382.720673 359.190033,384.349670 
	C368.281006,387.275085 369.221130,389.453033 364.913239,397.953827 
	C367.223572,402.243256 374.175201,402.551636 374.291809,408.757629 
	C374.365051,412.655457 371.229645,414.499847 368.957062,416.794586 
	C366.112488,419.666870 363.447815,423.768921 358.498322,421.590210 
	C354.602783,419.875427 353.490540,415.110291 350.220490,412.639465 
	C342.063934,417.056366 339.700775,416.102020 336.737915,407.289948 
	C334.089325,399.412689 331.447968,391.532623 328.879181,383.629181 
	C328.156372,381.405365 327.556915,379.099915 329.675232,377.142212 
	C331.753906,375.221069 333.955475,375.892883 336.213104,376.673218 
	C338.569305,377.487610 340.945648,378.243744 343.680237,379.175293 
M360.238922,413.819794 
	C363.989410,414.172668 364.997040,411.242310 366.608948,408.814240 
	C364.059357,405.520081 360.345703,404.106262 357.484253,401.628967 
	C352.823822,397.594238 358.743011,395.109253 359.239197,391.389679 
	C351.803802,388.964508 344.526611,386.590942 335.981964,383.803986 
	C338.876556,392.568939 341.293365,399.887177 343.659088,407.050629 
	C344.391510,407.050629 344.588348,407.111542 344.703583,407.040344 
	C345.259705,406.696777 345.824432,406.355408 346.330963,405.945160 
	C350.747864,402.368042 351.804993,402.474487 355.081116,406.915039 
	C356.661102,409.056549 358.209656,411.221161 360.238922,413.819794 
z"/>
<path fill="#000000" opacity="1.000000" stroke="none" 
	d="
M276.190979,357.016785 
	C275.178528,359.405640 273.589172,360.062317 271.618439,359.176178 
	C269.560028,358.250610 269.650513,356.307007 269.881195,354.433258 
	C269.941467,353.943665 270.031189,353.417542 270.265076,352.995636 
	C272.624390,348.739990 275.508728,345.091705 274.450806,339.271332 
	C273.703003,335.156830 278.453064,332.749420 283.039001,333.640900 
	C287.186646,334.447174 290.119904,338.044800 288.759247,341.976227 
	C287.601471,345.321289 288.696991,347.042175 290.715973,349.279144 
	C291.969574,350.668060 292.557098,352.793945 293.057007,354.690948 
	C293.607666,356.780670 293.147369,358.852478 290.703094,359.451691 
	C288.550812,359.979309 287.228882,358.724182 286.758331,356.647736 
	C286.108246,353.778687 284.588867,351.523438 281.506836,351.552521 
	C278.478333,351.580994 276.794464,353.688293 276.190979,357.016785 
z"/>
<path fill="#000000" opacity="1.000000" stroke="none" 
	d="
M333.924377,349.748291 
	C336.407745,349.771118 338.407684,349.716553 340.396545,349.840057 
	C342.409851,349.965057 344.054779,350.824036 344.024597,353.111237 
	C343.994537,355.392212 342.357574,356.243195 340.320862,356.279022 
	C336.330811,356.349274 332.339020,356.324738 328.347931,356.325623 
	C321.862000,356.327057 315.376068,356.326385 308.890167,356.307373 
	C306.670135,356.300873 304.150421,356.277100 304.050201,353.324432 
	C303.940887,350.103394 306.571350,349.827209 308.989319,349.810425 
	C317.137970,349.753845 325.287079,349.764221 333.924377,349.748291 
z"/>
<path fill="#000000" opacity="1.000000" stroke="none" 
	d="
M319.982239,407.707336 
	C322.957184,407.718719 325.448944,407.878296 327.917389,407.705292 
	C331.990997,407.419769 333.669067,409.265350 333.423035,413.829254 
	C327.874542,414.729828 322.295654,414.138031 316.768738,414.284790 
	C314.124481,414.355011 311.475769,414.270844 308.829285,414.238129 
	C306.574249,414.210236 304.131287,413.964539 304.078613,411.120453 
	C304.019501,407.929077 306.659668,407.750916 309.067261,407.726074 
	C312.540710,407.690186 316.014771,407.710022 319.982239,407.707336 
z"/>
<path fill="#000000" opacity="1.000000" stroke="none" 
	d="
M330.572876,177.750610 
	C335.952118,176.294006 337.165283,177.330688 336.101532,182.061966 
	C335.312927,185.569366 331.758636,189.198441 328.233154,190.095779 
	C323.512939,191.297226 322.382935,190.116028 323.528351,185.181580 
	C323.674194,184.553268 323.968811,183.908875 323.919922,183.293747 
	C323.352173,176.146011 323.373169,176.117096 330.572876,177.750610 
z"/>
<path fill="#000000" opacity="1.000000" stroke="none" 
	d="
M264.845825,131.247894 
	C260.346710,128.856064 259.899628,125.124794 261.237427,121.287460 
	C262.335968,118.136406 265.323151,117.081314 268.537872,117.336876 
	C272.146729,117.623779 274.186066,119.900536 274.964630,123.275131 
	C276.188538,128.580109 271.764496,132.212494 264.845825,131.247894 
z"/>
<path fill="#000000" opacity="1.000000" stroke="none" 
	d="
M318.825073,345.102478 
	C314.858337,345.057281 311.355194,345.144104 307.873810,344.908813 
	C305.796509,344.768402 303.827576,343.919220 303.971252,341.297760 
	C304.103546,338.883728 306.092316,338.439911 307.941589,338.372772 
	C312.594086,338.203918 317.257141,338.104309 321.908936,338.231934 
	C324.161987,338.293762 327.112030,338.343811 327.007751,341.623749 
	C326.909698,344.708801 324.165283,344.841675 321.793030,345.016052 
	C320.963745,345.077057 320.129669,345.073212 318.825073,345.102478 
z"/>
<path fill="#000000" opacity="1.000000" stroke="none" 
	d="
M305.684082,419.779663 
	C311.667267,419.258514 317.297821,418.748505 322.949890,419.494904 
	C324.851257,419.746002 326.823669,419.945984 326.957886,422.333801 
	C327.090363,424.689575 325.231445,425.359314 323.319214,425.631470 
	C317.836121,426.411743 312.333069,425.911011 306.913971,425.240479 
	C303.589355,424.829102 302.943146,422.574432 305.684082,419.779663 
z"/>
<path fill="#000000" opacity="1.000000" stroke="none" 
	d="
M264.001099,268.106781 
	C266.624634,271.239685 264.676514,274.620575 265.245270,277.775818 
	C265.454193,278.934875 263.873718,279.856506 262.727692,279.632843 
	C260.580902,279.213867 258.570862,279.346832 256.428284,279.684753 
	C254.722961,279.953705 253.763565,278.543701 253.726242,276.814758 
	C253.680252,274.683868 253.700012,272.549500 253.764893,270.418884 
	C253.821198,268.569885 254.974655,267.760559 256.697571,267.761810 
	C259.013153,267.763519 261.328705,267.868835 264.001099,268.106781 
z"/>
<path fill="#000000" opacity="1.000000" stroke="none" 
	d="
M314.054199,391.213196 
	C311.256989,391.114380 308.918549,391.180450 306.634125,390.860657 
	C305.060181,390.640320 303.898926,389.510071 304.001221,387.745667 
	C304.100861,386.026703 305.239349,384.910553 306.894257,384.877502 
	C312.198608,384.771423 317.510712,384.715881 322.810883,384.899750 
	C325.104980,384.979309 325.626312,387.093933 325.703674,388.930817 
	C325.792633,391.043823 323.983002,391.066803 322.500824,391.118530 
	C319.847992,391.211029 317.191162,391.188171 314.054199,391.213196 
z"/>
<path fill="#000000" opacity="1.000000" stroke="none" 
	d="
M306.676758,373.109009 
	C313.113129,372.767609 319.122437,372.527771 325.249176,373.195679 
	C324.927063,377.920502 323.028320,379.591003 319.139587,379.374420 
	C315.516022,379.172638 311.873260,379.325073 308.239136,379.296875 
	C306.530304,379.283600 304.835632,379.078705 304.201172,377.145294 
	C303.568024,375.215790 304.547089,373.999512 306.676758,373.109009 
z"/>
<path fill="#000000" opacity="1.000000" stroke="none" 
	d="
M312.374634,402.448273 
	C309.170380,401.784760 304.314789,403.994171 304.269501,399.425537 
	C304.221252,394.560944 309.239197,396.636292 312.176208,395.996246 
	C312.335907,395.961456 312.507599,395.979584 312.673737,395.976410 
	C315.389984,395.924072 318.737274,395.760925 318.782806,399.335571 
	C318.830811,403.109009 315.520081,402.754333 312.374634,402.448273 
z"/>
<path fill="#000000" opacity="1.000000" stroke="none" 
	d="
M341.638794,419.802338 
	C345.194336,422.393433 344.588531,424.484680 340.949188,425.206390 
	C338.100311,425.771393 335.055023,425.394409 332.098358,425.348907 
	C330.369293,425.322296 329.255524,424.303101 329.184296,422.611664 
	C329.112244,420.900085 330.245544,419.721313 331.885864,419.650543 
	C334.991913,419.516602 338.110779,419.679749 341.638794,419.802338 
z"/>
<path fill="#000000" opacity="1.000000" stroke="none" 
	d="
M328.017761,396.973938 
	C329.269379,398.412628 329.680756,399.795776 329.553802,401.678162 
	C326.949127,402.796600 324.308044,402.975861 321.799744,401.270203 
	C320.693237,400.517792 320.659515,399.155212 321.412994,398.149139 
	C323.063141,395.945831 325.398804,396.243286 328.017761,396.973938 
z"/>
<path fill="#000000" opacity="1.000000" stroke="none" 
	d="
M249.106628,134.866211 
	C248.264755,137.246292 246.794281,137.979599 244.778061,137.262344 
	C243.412216,136.776459 242.735367,135.655670 242.948334,134.177307 
	C243.154480,132.746307 243.988144,131.715744 245.455383,131.580322 
	C247.516037,131.390121 248.937988,132.226791 249.106628,134.866211 
z"/>
<path fill="#000000" opacity="1.000000" stroke="none" 
	d="
M295.204285,221.624237 
	C293.688141,219.582336 293.859100,217.922073 295.618195,216.629898 
	C296.819672,215.747345 298.127869,215.945160 299.247223,216.936325 
	C300.381500,217.940674 300.571747,219.272064 300.016266,220.558029 
	C299.080322,222.724762 297.360718,222.716309 295.204285,221.624237 
z"/>
<path fill="#000000" opacity="1.000000" stroke="none" 
	d="
M291.919922,285.164520 
	C291.401062,282.845551 291.546906,281.121399 294.052002,280.774017 
	C295.272583,280.604736 296.412750,280.893433 297.055969,282.041351 
	C297.752625,283.284729 297.863220,284.657684 296.805817,285.724457 
	C295.218140,287.326202 293.574829,287.066956 291.919922,285.164520 
z"/>
<path fill="#000000" opacity="1.000000" stroke="none" 
	d="
M359.453308,187.540070 
	C361.997040,187.389908 363.297455,188.321869 363.174408,190.645294 
	C363.106567,191.926514 362.358917,192.788742 361.104431,193.096313 
	C359.914093,193.388138 358.711487,193.269241 357.991913,192.185898 
	C356.772064,190.349472 357.110565,188.767990 359.453308,187.540070 
z"/>
<path fill="#000000" opacity="1.000000" stroke="none" 
	d="
M324.821045,472.616821 
	C326.692169,474.055084 327.025421,475.705444 325.806152,477.147125 
	C323.711304,479.624237 320.723694,479.031616 317.957275,478.809875 
	C316.353668,478.681366 315.085175,477.781586 314.767212,476.148712 
	C314.339050,473.949707 315.598602,472.638092 317.610535,472.251953 
	C319.881439,471.816071 322.204468,471.839081 324.821045,472.616821 
z"/>
<path fill="#000000" opacity="1.000000" stroke="none" 
	d="
M352.944916,477.185242 
	C350.132385,479.704926 347.170288,479.328461 344.279724,478.455170 
	C342.363586,477.876312 340.890778,476.354370 342.022400,474.310364 
	C343.976166,470.781372 347.499542,471.959320 350.511536,472.237274 
	C353.280029,472.492737 354.095856,474.276093 352.944916,477.185242 
z"/>
<path fill="#000000" opacity="1.000000" stroke="none" 
	d="
M266.817017,478.994263 
	C265.124573,478.822906 263.800537,478.755035 262.552185,478.411865 
	C261.351471,478.081818 260.680511,477.099609 260.569153,475.843018 
	C260.328400,473.125977 262.280548,472.419281 264.308167,472.260132 
	C267.135864,472.038147 270.626923,470.866638 272.069733,474.522766 
	C273.095245,477.121490 271.038025,478.350555 268.690979,478.846069 
	C268.212250,478.947144 267.709930,478.936523 266.817017,478.994263 
z"/>
<path fill="#000000" opacity="1.000000" stroke="none" 
	d="
M280.717224,472.043884 
	C283.378296,472.296448 285.938171,472.745941 285.629700,475.565033 
	C285.242279,479.105316 282.092896,479.021606 279.398254,478.997955 
	C276.993896,478.976868 274.210571,478.678253 274.100403,475.689240 
	C273.937561,471.271454 277.654388,472.310577 280.717224,472.043884 
z"/>
<path fill="#000000" opacity="1.000000" stroke="none" 
	d="
M372.447479,478.876038 
	C370.040283,478.289185 368.762360,477.089996 369.098511,474.934540 
	C369.446167,472.705231 371.358978,472.301178 373.200134,472.091309 
	C374.335419,471.961945 375.507538,471.978119 376.646118,472.094757 
	C378.537201,472.288483 380.378448,472.822296 380.495178,475.132355 
	C380.618530,477.572937 379.023773,478.667084 376.800934,478.888672 
	C375.497253,479.018616 374.171783,478.929993 372.447479,478.876038 
z"/>
<path fill="#000000" opacity="1.000000" stroke="none" 
	d="
M271.526001,461.927795 
	C269.051086,461.096405 267.490448,459.833679 268.431122,457.441772 
	C269.706482,454.198669 272.677063,454.899384 275.254364,455.018311 
	C277.329071,455.114075 279.241028,455.661530 279.576599,458.191071 
	C279.809509,459.946594 278.931244,461.154907 277.304565,461.490112 
	C275.553680,461.850861 273.726349,461.840546 271.526001,461.927795 
z"/>
<path fill="#000000" opacity="1.000000" stroke="none" 
	d="
M290.040985,472.401489 
	C292.228302,472.226166 294.049194,472.030701 295.851807,472.139069 
	C297.675323,472.248688 299.019714,473.236420 299.118500,475.213318 
	C299.213593,477.117157 298.173950,478.476654 296.328552,478.745026 
	C293.407043,479.169922 290.185852,479.845886 288.147278,476.898621 
	C286.942413,475.156708 287.494507,473.402649 290.040985,472.401489 
z"/>
<path fill="#000000" opacity="1.000000" stroke="none" 
	d="
M311.629364,477.883850 
	C308.801880,479.386871 306.177612,479.283875 303.585999,478.549042 
	C302.014343,478.103424 301.095703,476.889130 301.205292,475.193390 
	C301.301819,473.700745 302.262054,472.724731 303.680908,472.463409 
	C306.444794,471.954346 309.339630,471.376709 311.790222,473.256500 
	C313.359375,474.460175 313.175018,476.124115 311.629364,477.883850 
z"/>
<path fill="#000000" opacity="1.000000" stroke="none" 
	d="
M233.497864,474.349426 
	C234.386490,472.675354 235.696793,472.346039 237.018936,472.240265 
	C239.939468,472.006561 243.361176,471.104492 244.785172,474.700195 
	C245.703064,477.018005 243.732895,478.650421 241.631882,478.745636 
	C238.309021,478.896240 233.886078,480.550690 233.497864,474.349426 
z"/>
<path fill="#000000" opacity="1.000000" stroke="none" 
	d="
M246.971710,475.043152 
	C249.386826,470.894257 252.936417,472.014832 256.258545,472.509644 
	C257.434814,472.684875 258.240997,473.640289 258.402161,474.922913 
	C258.583710,476.367615 257.996826,477.460052 256.802887,478.265747 
	C253.852097,480.257172 248.895767,478.845093 246.971710,475.043152 
z"/>
<path fill="#000000" opacity="1.000000" stroke="none" 
	d="
M336.713989,465.368225 
	C339.561523,462.862030 342.610626,463.470062 345.457031,464.111938 
	C347.650726,464.606659 349.035980,466.443207 347.489532,468.617523 
	C345.258667,471.754272 341.704834,470.612366 338.738983,470.274597 
	C336.474976,470.016785 335.653473,468.014771 336.713989,465.368225 
z"/>
<path fill="#000000" opacity="1.000000" stroke="none" 
	d="
M328.505554,476.597595 
	C327.909271,473.316376 329.794586,472.347229 332.125153,472.136353 
	C334.731750,471.900513 337.632416,471.442139 339.469696,473.948029 
	C340.918121,475.923523 339.705566,477.599243 337.809235,478.258087 
	C334.635590,479.360718 331.336090,479.970490 328.505554,476.597595 
z"/>
<path fill="#000000" opacity="1.000000" stroke="none" 
	d="
M335.370056,460.919006 
	C333.221130,457.941162 334.509094,456.007080 337.089813,455.375824 
	C340.034454,454.655518 343.647461,453.707825 345.453247,457.372406 
	C346.690979,459.884186 344.917358,461.506989 342.480774,461.937408 
	C340.196838,462.340881 337.847290,462.284851 335.370056,460.919006 
z"/>
<path fill="#000000" opacity="1.000000" stroke="none" 
	d="
M332.071716,460.295532 
	C329.191864,462.643677 326.288574,462.452240 323.379089,461.390503 
	C321.051666,460.541168 320.236938,458.769196 321.716370,456.710541 
	C323.737518,453.897980 326.833191,454.828583 329.511353,455.275269 
	C331.932068,455.679047 333.305695,457.262695 332.071716,460.295532 
z"/>
<path fill="#000000" opacity="1.000000" stroke="none" 
	d="
M292.217590,460.313354 
	C289.489746,462.497620 286.701050,462.490234 283.944275,461.666351 
	C281.764923,461.015045 280.427094,459.359436 281.731201,457.124542 
	C283.489197,454.111786 286.647400,454.770935 289.340118,455.189575 
	C291.808167,455.573212 293.754883,456.894257 292.217590,460.313354 
z"/>
<path fill="#000000" opacity="1.000000" stroke="none" 
	d="
M363.482056,478.791290 
	C360.489349,478.880951 357.658386,479.703888 355.863739,476.945038 
	C355.088806,475.753754 354.947388,474.294495 356.136841,473.321472 
	C358.410065,471.461823 361.121796,471.962799 363.741913,472.331604 
	C365.285950,472.548889 366.750854,473.125641 366.969696,474.887939 
	C367.244019,477.097168 365.808685,478.157532 363.482056,478.791290 
z"/>
<path fill="#000000" opacity="1.000000" stroke="none" 
	d="
M319.196747,458.089233 
	C317.461578,462.166962 311.211975,463.472107 308.762665,460.623138 
	C307.147430,458.744324 307.417023,456.520905 309.614868,455.738892 
	C312.957092,454.549713 316.695221,453.540710 319.196747,458.089233 
z"/>
<path fill="#000000" opacity="1.000000" stroke="none" 
	d="
M369.510559,461.822571 
	C367.947906,461.941193 366.776611,462.081909 365.641571,461.937531 
	C363.518402,461.667542 361.111877,461.542938 360.938599,458.606201 
	C360.823914,456.662476 362.060181,455.449646 363.869568,455.193359 
	C366.649414,454.799591 369.729706,454.309235 371.657562,456.940643 
	C373.111633,458.925385 372.069427,460.687286 369.510559,461.822571 
z"/>
<path fill="#000000" opacity="1.000000" stroke="none" 
	d="
M256.880676,455.614563 
	C258.397949,455.285889 259.535858,455.022522 260.677124,455.007294 
	C262.849304,454.978210 265.155426,454.985535 266.042175,457.535583 
	C266.585449,459.097900 266.096161,460.651459 264.423553,461.186310 
	C261.593658,462.091248 258.521210,463.056671 255.950516,460.830475 
	C254.082886,459.213135 254.635147,457.293671 256.880676,455.614563 
z"/>
<path fill="#000000" opacity="1.000000" stroke="none" 
	d="
M306.009003,458.088379 
	C304.012543,461.834930 299.457092,463.235992 296.465515,461.459198 
	C295.394257,460.822906 294.710236,459.946808 294.667633,458.671814 
	C294.617889,457.184357 295.290588,455.877869 296.657928,455.551941 
	C300.038361,454.746094 303.580688,453.833008 306.009003,458.088379 
z"/>
<path fill="#000000" opacity="1.000000" stroke="none" 
	d="
M246.165604,454.998657 
	C248.048584,455.168121 249.560379,455.187744 250.954742,455.602264 
	C252.284286,455.997528 253.150223,457.068817 253.112778,458.586914 
	C253.075500,460.098267 252.218277,461.095520 250.818558,461.447388 
	C249.549225,461.766510 248.219147,461.899231 246.907501,461.982697 
	C244.597443,462.129669 242.402863,461.626190 241.907608,459.033081 
	C241.371399,456.225586 243.362167,455.314484 246.165604,454.998657 
z"/>
<path fill="#000000" opacity="1.000000" stroke="none" 
	d="
M318.341034,469.705627 
	C315.722107,470.094269 313.441193,470.429321 311.168793,470.379059 
	C309.266571,470.336945 308.208923,468.950806 308.138245,467.119537 
	C308.073700,465.446594 309.148071,464.213898 310.724731,463.974762 
	C313.446167,463.561981 316.370026,462.899811 318.767242,464.828278 
	C320.479584,466.205841 320.289154,467.958099 318.341034,469.705627 
z"/>
<path fill="#000000" opacity="1.000000" stroke="none" 
	d="
M324.546936,470.349854 
	C322.433411,469.135925 321.465393,467.569885 322.612030,465.676392 
	C324.441223,462.655792 327.586609,463.800781 330.271515,463.752380 
	C332.082672,463.719757 333.552979,464.654388 333.832611,466.543701 
	C334.152069,468.702209 332.961884,470.024445 330.824005,470.238464 
	C328.863525,470.434692 326.879669,470.397949 324.546936,470.349854 
z"/>
<path fill="#000000" opacity="1.000000" stroke="none" 
	d="
M358.997833,458.093140 
	C356.922791,461.975677 352.074127,463.224548 349.054535,461.083740 
	C348.017914,460.348785 347.527832,459.371704 347.674377,458.113312 
	C347.846344,456.636627 348.745178,455.521423 350.108154,455.318298 
	C353.337952,454.837036 356.769562,454.042542 358.997833,458.093140 
z"/>
<path fill="#000000" opacity="1.000000" stroke="none" 
	d="
M357.742493,463.734497 
	C360.410614,464.012146 362.208069,464.993164 361.928619,467.467987 
	C361.644348,469.985748 359.491119,470.299652 357.376648,470.325623 
	C356.545441,470.335815 355.714233,470.372437 354.883667,470.411072 
	C352.474945,470.523041 350.295074,469.923920 350.264374,467.132294 
	C350.233795,464.350647 352.444366,463.721222 354.812561,463.689880 
	C355.643799,463.678864 356.475525,463.701874 357.742493,463.734497 
z"/>
<path fill="#000000" opacity="1.000000" stroke="none" 
	d="
M280.187378,466.108826 
	C282.965607,462.566925 286.445068,463.447479 289.573608,464.219818 
	C291.822906,464.775085 292.700195,466.962341 291.016846,468.931885 
	C289.036591,471.248779 286.041046,470.369049 283.470428,470.399292 
	C281.127930,470.426819 279.839691,468.972534 280.187378,466.108826 
z"/>
<path fill="#000000" opacity="1.000000" stroke="none" 
	d="
M304.130249,464.369232 
	C305.779327,465.889282 306.544464,467.403320 305.126587,468.952026 
	C303.038208,471.233093 300.144562,470.182465 297.584137,470.358643 
	C295.954102,470.470856 294.585541,469.561646 294.221619,467.940125 
	C293.669250,465.479248 295.097748,464.114990 297.375488,463.837494 
	C299.496277,463.579071 301.677826,463.393799 304.130249,464.369232 
z"/>
<path fill="#000000" opacity="1.000000" stroke="none" 
	d="
M277.304321,468.631073 
	C274.499359,471.243073 271.409576,470.494354 268.558228,470.031250 
	C266.260620,469.658051 265.012207,467.716034 266.443573,465.562897 
	C268.337891,462.713287 271.551941,463.664764 274.264496,463.858643 
	C276.746918,464.036041 278.227417,465.483398 277.304321,468.631073 
z"/>
<path fill="#000000" opacity="1.000000" stroke="none" 
	d="
M370.061218,470.340027 
	C367.134918,470.188416 364.075714,470.349640 364.509918,466.700073 
	C364.905670,463.374115 367.939484,463.689697 370.399078,463.726593 
	C372.843079,463.763245 375.940186,463.477417 375.977783,466.972351 
	C376.015045,470.434540 373.006592,470.291412 370.061218,470.340027 
z"/>
<path fill="#000000" opacity="1.000000" stroke="none" 
	d="
M252.446075,465.415192 
	C255.289917,462.926331 258.312439,463.483459 261.142578,464.105927 
	C263.400787,464.602631 264.587616,466.528351 263.054077,468.589691 
	C260.942810,471.427582 257.641266,470.403320 254.816406,470.079407 
	C252.532059,469.817444 251.464371,468.181976 252.446075,465.415192 
z"/>
<path fill="#000000" opacity="1.000000" stroke="none" 
	d="
M243.033722,463.720093 
	C244.945114,463.741943 246.452835,463.611725 247.817780,464.416840 
	C249.075333,465.158600 249.959976,466.270081 249.481400,467.678375 
	C248.317184,471.104218 245.262466,470.242401 242.722626,470.292145 
	C240.492584,470.335754 238.054413,470.061157 238.028061,467.135651 
	C238.002502,464.296967 240.327850,463.869843 243.033722,463.720093 
z"/>
<path fill="#000000" opacity="1.000000" stroke="none" 
	d="
M238.691498,460.807373 
	C237.782913,461.280121 237.185501,461.595184 236.551651,461.711060 
	C234.492767,462.087402 232.546860,461.875946 231.411530,459.847473 
	C230.584824,458.370392 230.915833,456.907166 232.328735,455.951416 
	C234.284943,454.628174 236.456940,454.708862 238.367554,455.914215 
	C240.214630,457.079529 240.326126,458.802063 238.691498,460.807373 
z"/>
<path fill="#000000" opacity="1.000000" stroke="none" 
	d="
M383.518494,473.222290 
	C384.400787,472.757812 385.026215,472.335510 385.636230,472.356689 
	C388.067261,472.441101 391.096191,472.031433 391.159180,475.664673 
	C391.209015,478.540283 388.858765,479.127502 386.562256,478.854889 
	C383.390991,478.478424 381.616333,476.943970 383.518494,473.222290 
z"/>
<path fill="#000000" opacity="1.000000" stroke="none" 
	d="
M226.100433,478.882629 
	C223.453232,478.191956 222.138229,476.737640 223.020233,474.438568 
	C223.969437,471.964233 226.374603,472.071594 228.531494,472.317657 
	C230.185654,472.506317 231.332397,473.635986 231.312729,475.300476 
	C231.275757,478.429291 228.983429,478.894501 226.100433,478.882629 
z"/>
<path fill="#000000" opacity="1.000000" stroke="none" 
	d="
M378.962341,461.955994 
	C376.060791,461.734772 373.702423,460.981506 374.267120,457.906158 
	C374.735565,455.354950 377.034485,454.881836 379.346130,455.157043 
	C381.111664,455.367188 382.588104,456.229034 382.851959,458.099640 
	C383.207581,460.620728 381.542297,461.581573 378.962341,461.955994 
z"/>
<path fill="#000000" opacity="1.000000" stroke="none" 
	d="
M383.830505,463.820618 
	C386.483612,464.546783 387.793549,465.974731 386.791687,468.282501 
	C385.723969,470.741943 383.328308,470.477600 381.192780,470.137390 
	C379.307037,469.836914 378.203217,468.493103 378.487946,466.624756 
	C378.914001,463.829010 381.149200,463.653931 383.830505,463.820618 
z"/>
<path fill="#000000" opacity="1.000000" stroke="none" 
	d="
M235.041351,465.588257 
	C234.798019,469.871368 231.220596,471.760315 228.259109,469.608551 
	C227.251724,468.876617 226.729691,467.882935 226.900375,466.651703 
	C227.099976,465.211823 228.007675,464.268036 229.401627,463.961548 
	C231.393814,463.523468 233.315598,463.631592 235.041351,465.588257 
z"/>
<path fill="#000000" opacity="1.000000" stroke="none" 
	d="
M362.381042,243.076843 
	C366.035065,242.586044 368.044647,243.872879 367.487823,247.363876 
	C367.119049,249.676056 365.235687,250.572174 362.969604,250.075729 
	C359.876862,249.398193 359.519958,246.629807 362.381042,243.076843 
z"/>
<path fill="#000000" opacity="1.000000" stroke="none" 
	d="
M346.795013,246.097015 
	C347.646790,243.127197 349.424713,242.228195 351.855682,243.144165 
	C353.571411,243.790665 354.378510,245.309372 354.039978,247.177109 
	C353.746063,248.798645 352.690247,249.896683 351.050140,250.114639 
	C348.396057,250.467392 346.978943,249.161804 346.795013,246.097015 
z"/>
<path fill="#000000" opacity="1.000000" stroke="none" 
	d="
M336.154175,250.192841 
	C333.346313,249.260818 332.348541,247.571823 333.172638,245.130142 
	C333.768860,243.363678 335.207123,242.621170 337.069275,242.845810 
	C338.953644,243.073166 340.045746,244.165207 340.205017,246.050262 
	C340.424408,248.646606 339.237305,250.101334 336.154175,250.192841 
z"/>
</svg>