<?xml version="1.0" standalone="no"?>
<!DOCTYPE svg PUBLIC "-//W3C//DTD SVG 20010904//EN"
 "http://www.w3.org/TR/2001/REC-SVG-20010904/DTD/svg10.dtd">
<svg version="1.0" xmlns="http://www.w3.org/2000/svg"
 width="500.000000pt" height="500.000000pt" viewBox="0 0 500.000000 500.000000"
 preserveAspectRatio="xMidYMid meet">

<g transform="translate(0.000000,500.000000) scale(0.100000,-0.100000)"
fill="#000000" stroke="none">
<path d="M3146 2916 c-10 -50 -34 -75 -94 -95 l-53 -18 43 -11 c51 -13 95 -55
104 -100 l7 -32 -49 -1 c-47 0 -48 -1 -26 -16 21 -15 22 -20 22 -195 0 -174
-1 -180 -22 -199 -23 -18 -20 -18 187 -18 203 -1 209 0 187 17 -22 17 -23 21
-21 204 0 103 -2 191 -6 197 -3 6 -39 11 -82 11 -73 0 -75 -1 -60 -18 15 -16
17 -45 17 -200 0 -173 -1 -182 -21 -192 -44 -24 -49 -3 -49 195 0 101 -3 190
-6 199 -3 9 -17 16 -30 16 -28 0 -31 18 -10 58 20 39 47 61 97 76 24 8 36 14
27 15 -47 3 -99 35 -118 72 -11 21 -20 45 -20 54 0 29 -18 15 -24 -19z"/>
<path d="M1300 2775 c0 -3 14 -11 30 -16 l30 -11 0 -243 0 -243 -32 -13 -33
-13 63 -4 c34 -1 90 -2 125 0 60 3 61 4 35 17 -25 13 -27 18 -30 100 -3 79 -1
88 20 112 13 15 63 43 111 63 107 45 136 72 135 128 -1 22 -10 51 -21 66 -37
50 -64 56 -255 60 -98 2 -178 1 -178 -3z m296 -39 c30 -30 34 -40 34 -86 0
-48 -4 -56 -38 -89 -43 -41 -102 -91 -108 -91 -9 0 -3 217 6 249 17 61 56 67
106 17z"/>
<path d="M2182 2643 c14 -15 17 -55 19 -270 3 -241 2 -253 -16 -268 -18 -13
-10 -14 85 -15 97 0 103 1 82 16 -18 12 -22 25 -22 69 l0 54 54 -6 c68 -7 117
9 155 52 37 43 51 91 51 180 0 81 -23 140 -65 173 -39 31 -111 30 -158 -2
l-36 -25 -3 27 c-3 26 -5 27 -82 30 -76 3 -79 2 -64 -15z m240 -64 c21 -41 24
-222 5 -279 -13 -38 -54 -67 -80 -57 -15 6 -17 27 -17 171 l0 165 27 21 c33
26 44 23 65 -21z"/>
<path d="M2632 2643 c14 -15 17 -55 19 -270 3 -241 2 -253 -16 -268 -18 -13
-10 -14 85 -15 97 0 103 1 82 16 -18 12 -22 25 -22 69 l0 54 54 -6 c68 -7 117
9 155 52 37 43 51 91 51 180 0 81 -23 140 -65 173 -39 31 -111 30 -158 -2
l-36 -25 -3 27 c-3 26 -5 27 -82 30 -76 3 -79 2 -64 -15z m240 -64 c21 -41 24
-222 5 -279 -13 -38 -54 -67 -80 -57 -15 6 -17 27 -17 171 l0 165 27 21 c33
26 44 23 65 -21z"/>
<path d="M1870 2628 c-68 -35 -85 -73 -85 -188 0 -82 3 -100 23 -133 33 -52
73 -71 152 -72 109 0 168 49 179 152 18 167 -33 250 -160 260 -53 4 -72 1
-109 -19z m131 -46 c19 -55 16 -248 -4 -294 -19 -46 -48 -50 -67 -10 -18 39
-25 215 -11 284 19 88 56 97 82 20z"/>
<path d="M3485 2640 c-12 -4 -26 -15 -33 -23 -11 -13 -8 -15 29 -10 29 4 44 2
50 -8 5 -8 9 -87 9 -175 0 -156 -1 -162 -22 -177 -22 -15 -17 -16 80 -16 93
-1 126 8 87 23 -12 4 -15 32 -15 160 0 157 -7 199 -38 222 -19 15 -115 17
-147 4z"/>
</g>
</svg>
